<?xml version="1.0" standalone="no"?>
<!DOCTYPE svg PUBLIC "-//W3C//DTD SVG 20010904//EN"
 "http://www.w3.org/TR/2001/REC-SVG-20010904/DTD/svg10.dtd">
<svg version="1.0" xmlns="http://www.w3.org/2000/svg"
 width="512.000000pt" height="512.000000pt" viewBox="0 0 512.000000 512.000000"
 preserveAspectRatio="xMidYMid meet">

<g transform="translate(0.000000,512.000000) scale(0.100000,-0.100000)"
fill="#000000" stroke="none">
<path d="M4860 4841 c-86 -27 -4742 -1887 -4772 -1907 -64 -41 -99 -136 -79
-211 13 -49 56 -106 96 -127 17 -9 306 -122 644 -251 338 -129 616 -236 618
-238 2 -2 82 -302 178 -666 96 -364 180 -671 186 -684 49 -96 175 -139 269
-92 14 7 182 126 373 264 l349 250 91 -63 c319 -220 1190 -807 1218 -822 22
-12 56 -18 96 -19 52 0 68 4 105 30 26 18 52 48 65 75 30 60 827 4236 820
4292 -16 120 -144 204 -257 169z m-900 -835 c-36 -35 -488 -469 -1005 -966
-1094 -1049 -1090 -1046 -1100 -1090 -4 -17 -10 -28 -14 -23 -4 4 -32 100 -61
212 -57 215 -80 265 -138 295 -16 8 -212 85 -437 171 -225 86 -415 160 -423
164 -10 6 277 124 879 364 492 196 1220 486 1619 646 399 159 729 290 735 290
5 1 -19 -28 -55 -63z m628 -3 c-5 -27 -143 -751 -307 -1611 -164 -859 -300
-1565 -303 -1567 -7 -8 -1608 1078 -1605 1087 3 10 2210 2137 2218 2137 3 1 2
-20 -3 -46z m-2444 -2433 c118 -80 215 -147 215 -150 0 -9 -320 -232 -325
-227 -3 3 -37 124 -75 269 -38 144 -72 272 -76 283 -5 18 -3 17 20 -5 14 -14
122 -90 241 -170z"/>
</g>
</svg>
