<?xml version="1.0" standalone="no"?>
<!DOCTYPE svg PUBLIC "-//W3C//DTD SVG 20010904//EN"
 "http://www.w3.org/TR/2001/REC-SVG-20010904/DTD/svg10.dtd">
<svg version="1.0" xmlns="http://www.w3.org/2000/svg"
 width="1076.000000pt" height="616.000000pt" viewBox="0 0 1076.000000 616.000000"
 preserveAspectRatio="xMidYMid meet">

<g transform="translate(0.000000,616.000000) scale(0.100000,-0.100000)"
fill="#000000" stroke="none">
<path d="M820 6130 c10 -10 33 -65 50 -122 17 -57 67 -213 110 -348 104 -320
150 -476 150 -504 0 -18 -16 -30 -82 -64 -46 -23 -106 -50 -135 -61 -81 -31
-351 -169 -423 -215 -114 -74 -214 -133 -237 -140 -13 -4 -23 -12 -23 -17 0
-5 -8 -9 -18 -9 -10 0 -28 -10 -40 -23 -12 -13 -56 -41 -97 -63 l-75 -39 0
-323 c0 -256 3 -322 12 -316 7 5 78 51 158 103 296 193 574 363 757 462 176
96 331 168 361 169 18 0 70 -117 132 -298 l53 -153 -24 -26 c-23 -25 -23 -25
-2 -14 12 6 24 11 28 11 8 0 35 -60 135 -304 70 -170 80 -202 70 -220 -6 -11
-52 -66 -102 -121 -112 -125 -395 -502 -453 -605 -5 -8 121 116 281 276 254
257 323 318 340 302 2 -3 -19 -43 -47 -89 -175 -285 -408 -773 -582 -1214 -88
-226 -87 -234 18 -77 36 53 65 93 65 88 0 -4 -25 -104 -55 -222 -30 -118 -55
-222 -55 -231 0 -9 64 111 143 268 182 361 273 526 298 539 10 6 81 20 156 31
76 12 145 25 153 29 31 17 -43 22 -162 11 -67 -6 -123 -9 -126 -6 -8 7 14 52
60 122 47 73 52 75 231 99 170 22 176 21 210 -46 15 -30 30 -71 33 -91 l6 -37
-63 -15 -64 -16 72 5 72 5 17 -33 c45 -87 184 -414 184 -432 0 -12 -11 -28
-26 -37 l-26 -16 43 1 43 1 33 -65 c18 -36 33 -68 33 -72 0 -3 -55 -43 -123
-89 -141 -95 -307 -217 -307 -224 0 -10 30 10 195 125 175 122 230 154 247
144 13 -8 128 -246 128 -265 0 -7 -12 -26 -27 -42 l-28 -29 38 18 c33 16 39
16 47 4 6 -8 10 -25 10 -36 0 -12 7 -27 15 -34 17 -14 68 -101 84 -142 l11
-28 -140 0 c-147 0 -158 4 -122 43 15 17 14 17 -20 -2 -56 -34 -90 -40 -126
-25 -36 15 -41 30 -14 39 9 3 33 19 52 36 l35 31 -55 -28 c-51 -26 -67 -28
-225 -35 -187 -8 -247 -18 -307 -52 -22 -12 -54 -30 -71 -39 -26 -15 -60 -18
-187 -19 -127 -1 -147 -3 -110 -11 62 -13 74 -28 24 -29 -21 -1 -52 -4 -69 -8
-27 -6 -28 -8 -9 -14 11 -4 85 -18 164 -32 79 -14 146 -28 149 -31 4 -3 -25
-3 -64 1 l-70 6 38 -34 c29 -27 48 -35 90 -40 54 -5 137 -34 137 -47 0 -10
-68 3 -183 35 -103 28 -141 32 -135 13 3 -7 56 -29 119 -48 66 -20 124 -44
135 -56 11 -11 42 -31 68 -44 28 -13 51 -32 57 -47 5 -13 9 -183 9 -376 l0
-352 39 -100 40 -100 305 -3 c168 -1 306 1 306 5 1 34 32 288 41 328 13 61 99
237 138 284 l29 35 193 -52 c225 -59 311 -77 469 -97 63 -7 182 -25 265 -39
351 -61 634 -90 1019 -106 154 -6 244 -14 253 -21 30 -25 453 8 781 61 188 31
565 117 520 119 -10 1 -75 -10 -145 -24 -159 -31 -459 -79 -618 -100 -208 -28
-1039 -6 -1363 35 -368 47 -749 119 -776 146 -21 20 -49 30 -273 90 -214 57
-259 72 -251 79 3 3 56 -8 119 -24 645 -166 1289 -263 1754 -265 341 -1 1038
22 1135 38 165 27 265 48 330 69 81 26 51 35 -44 13 -37 -9 -75 -16 -84 -16
-40 1 24 22 193 65 169 43 265 56 265 35 0 -5 -18 -19 -40 -30 -22 -11 -40
-26 -40 -34 0 -7 -18 -21 -40 -31 -60 -27 -41 -29 40 -4 48 14 75 18 82 11 5
-5 11 -39 13 -74 6 -130 66 -274 171 -411 l66 -87 549 0 548 0 6 37 c4 21 15
85 25 143 34 188 109 732 119 863 10 132 21 166 60 186 10 6 21 18 25 26 4 13
-1 11 -24 -5 -40 -28 -56 -21 -64 28 -11 70 0 83 197 252 154 132 122 116 -56
-27 -71 -57 -97 -73 -97 -57 0 17 66 86 190 199 76 70 141 134 145 143 6 17 9
19 -89 -61 -32 -26 -61 -45 -64 -42 -6 6 13 27 226 247 144 149 165 178 142
193 -18 11 -11 22 61 106 39 45 78 94 87 108 9 14 19 28 22 31 13 11 99 128
125 170 15 25 45 63 65 86 20 22 39 47 42 55 4 12 7 12 22 0 42 -35 72 -141
176 -629 39 -183 81 -363 92 -400 11 -37 20 -81 19 -99 0 -18 8 -56 20 -85 11
-29 18 -62 14 -75 -3 -15 -1 -23 7 -23 13 0 48 -149 48 -203 0 -15 4 -27 10
-27 5 0 12 -27 16 -60 4 -33 11 -63 15 -66 5 -3 9 -18 9 -33 0 -15 16 -121 35
-237 19 -115 35 -219 35 -232 0 -15 4 -21 12 -16 8 5 9 -5 4 -36 -4 -25 -2
-47 4 -55 6 -7 17 -55 25 -106 9 -52 25 -140 37 -196 l21 -103 569 0 568 0 0
3075 0 3075 -1274 0 -1275 0 4 -30 c2 -16 9 -38 14 -49 6 -11 24 -75 40 -143
16 -68 35 -136 42 -153 6 -16 13 -41 15 -55 5 -45 22 -100 34 -115 7 -8 13
-34 15 -57 3 -46 59 -211 101 -295 14 -29 23 -57 18 -64 -5 -8 -3 -9 6 -4 8 5
11 3 8 -6 -3 -8 8 -38 23 -68 17 -32 29 -69 29 -92 0 -21 4 -40 9 -44 5 -3 9
-19 9 -35 -1 -16 4 -36 11 -43 6 -8 14 -40 17 -72 3 -32 16 -112 30 -178 24
-118 30 -188 18 -200 -10 -9 -53 16 -209 118 -165 110 -331 203 -665 373 -135
69 -246 126 -247 127 -2 1 -33 531 -33 568 0 12 9 17 33 18 l32 1 -36 16 -37
16 -6 96 c-6 87 -26 323 -30 344 0 5 10 13 24 17 14 4 -1484 7 -3327 8 -3329
1 -3353 1 -3333 -19z m2570 6 c0 -11 -167 -107 -228 -131 -90 -36 -128 -53
-252 -113 -122 -59 -265 -110 -277 -99 -4 5 -9 84 -11 178 l-4 169 386 0 c212
0 386 -2 386 -4z m2690 -88 c18 -51 51 -140 73 -198 41 -108 129 -374 141
-422 6 -26 4 -28 -24 -28 -17 0 -72 7 -123 14 -183 29 -377 40 -692 41 -348 0
-396 -5 -765 -76 -447 -87 -704 -172 -1170 -388 -247 -114 -491 -261 -754
-453 -66 -48 -126 -88 -132 -88 -7 0 -14 10 -17 23 -9 36 -13 811 -4 824 13
20 392 243 674 396 67 37 280 139 473 227 193 88 370 170 393 183 60 32 111
33 1057 35 l836 2 34 -92z m-381 -1095 l63 -6 -6 -31 c-7 -33 -41 -105 -136
-285 -33 -62 -60 -118 -60 -124 0 -37 155 222 201 336 32 81 52 100 98 93 94
-17 141 -28 141 -34 0 -4 -23 -39 -51 -77 -28 -39 -82 -133 -119 -210 -38 -77
-88 -167 -112 -200 -62 -85 -85 -120 -70 -111 6 4 38 42 69 84 31 42 73 95 93
118 23 25 50 73 69 123 35 91 57 129 121 210 l43 54 61 -6 c86 -9 329 -71 384
-99 50 -25 72 -58 94 -140 17 -68 -3 -104 -125 -218 -56 -52 -174 -169 -263
-259 l-162 -164 -78 56 c-292 209 -419 270 -672 324 -115 25 -147 27 -337 27
-219 0 -313 -11 -520 -64 -97 -24 -252 -101 -391 -192 -57 -37 -110 -68 -117
-68 -8 0 -42 35 -75 78 -78 101 -87 108 -163 133 -77 25 -223 95 -240 115 -8
10 -9 17 0 28 24 29 552 286 588 286 5 0 33 -41 63 -90 94 -162 170 -260 170
-221 0 5 -27 50 -61 101 -86 132 -122 198 -116 215 15 38 589 175 735 175 l52
0 0 -32 c0 -18 -12 -91 -26 -161 -18 -88 -23 -132 -16 -139 17 -17 28 18 52
161 25 157 33 177 73 191 44 15 157 13 157 -3 0 -7 -13 -89 -30 -182 -34 -193
-33 -185 -21 -185 18 0 42 85 56 208 21 167 22 171 48 182 26 10 445 13 536 3z
m932 -442 c6 -22 9 -47 6 -55 -12 -31 -267 -179 -283 -164 -11 12 7 29 75 73
76 49 131 102 157 151 10 19 22 34 26 34 4 0 12 -18 19 -39z m94 -226 c78
-182 135 -334 135 -360 0 -33 -36 -50 -150 -70 -51 -9 -165 -41 -254 -71 -88
-30 -166 -54 -173 -54 -20 0 -223 242 -223 267 0 15 25 43 78 88 140 121 216
173 346 240 71 36 138 72 150 80 28 20 35 11 91 -120z m939 97 c50 -24 88 -49
99 -65 10 -15 26 -27 38 -27 31 0 127 -53 271 -149 174 -117 299 -218 312
-253 7 -19 17 -28 32 -28 31 0 103 -58 125 -99 11 -20 32 -40 51 -48 18 -8 97
-78 175 -157 119 -119 143 -147 143 -172 0 -42 -66 -226 -86 -241 -24 -17 -93
-16 -260 3 -197 23 -310 15 -581 -40 -129 -27 -248 -46 -286 -46 -58 0 -65 2
-71 23 -5 17 -23 306 -26 408 0 12 13 19 47 24 25 4 135 31 242 62 322 90 413
112 538 133 l118 20 -120 -6 c-151 -6 -210 -19 -471 -104 -115 -38 -241 -74
-278 -81 -79 -15 -86 -10 -86 59 0 23 0 45 -1 50 -6 40 282 131 576 182 169
29 156 37 -35 20 -145 -13 -215 -30 -365 -91 -66 -26 -133 -49 -150 -51 l-30
-3 -8 175 c-10 236 -7 323 15 347 10 11 43 27 74 37 72 23 62 33 -15 16 -85
-18 -91 -13 -91 63 0 57 5 77 18 77 2 0 41 -17 86 -38z m-4127 -51 c87 -44
181 -90 208 -103 36 -17 63 -41 98 -87 56 -74 62 -55 -68 -198 -179 -197 -203
-230 -271 -377 -125 -270 -172 -452 -181 -700 -5 -134 -2 -184 18 -322 13 -90
27 -164 31 -164 4 0 8 -12 8 -26 0 -14 15 -60 34 -102 18 -43 39 -95 46 -117
7 -22 21 -51 30 -65 10 -14 41 -65 70 -115 87 -147 186 -260 350 -396 162
-135 410 -268 581 -313 238 -63 539 -78 736 -38 205 41 407 127 595 252 110
73 292 220 301 243 3 8 41 59 85 113 43 55 100 141 127 192 26 52 54 96 61 99
28 11 208 -109 378 -252 132 -110 174 -141 181 -133 3 3 -21 25 -52 51 -32 25
-98 80 -148 122 -49 43 -147 115 -217 161 -71 47 -128 89 -128 94 0 15 45 132
69 178 20 39 23 41 54 35 140 -26 300 -100 456 -212 129 -92 143 -98 277 -121
209 -36 222 -25 22 19 -157 34 -170 40 -286 127 -117 88 -242 149 -379 182
-61 15 -114 30 -117 33 -3 3 1 50 9 105 9 54 18 185 22 289 5 185 4 194 -26
340 -41 196 -59 248 -148 427 -41 82 -71 153 -67 158 18 16 539 160 581 160
18 0 133 -285 133 -330 0 -21 3 -20 -270 -70 -91 -17 -169 -33 -175 -35 -5 -3
55 -3 136 0 240 8 314 21 242 40 l-28 8 25 7 c64 20 77 14 114 -52 41 -75 146
-338 146 -367 0 -22 16 -20 -295 -45 -104 -9 -208 -21 -230 -28 -60 -17 -18
-22 78 -8 45 6 168 14 273 17 l191 6 38 -67 c38 -69 255 -550 255 -567 0 -15
-69 -10 -150 10 -41 11 -133 44 -205 74 -71 31 -157 62 -190 71 -74 19 -316
58 -322 52 -3 -2 58 -19 134 -36 186 -43 259 -65 353 -105 114 -49 225 -82
303 -90 43 -5 76 -14 92 -27 24 -18 135 -226 135 -252 0 -18 -40 -53 -81 -70
-20 -8 -65 -43 -100 -78 -136 -133 -522 -382 -709 -457 -119 -47 -249 -82
-330 -88 -41 -3 -80 -9 -85 -14 -6 -4 -52 -17 -103 -28 -124 -27 -276 -79
-458 -156 -152 -66 -190 -75 -212 -53 -9 9 -12 8 -12 -4 0 -35 -102 -78 -138
-59 -14 7 -21 5 -29 -9 -8 -12 -38 -22 -100 -34 -127 -23 -157 -22 -182 10
l-21 27 0 -32 c0 -28 -3 -32 -22 -29 -14 2 -24 12 -28 28 l-6 25 -8 -23 c-4
-12 -15 -26 -24 -31 -29 -15 -123 -20 -217 -13 -83 7 -90 9 -95 31 -5 21 -7
22 -19 7 -17 -20 -48 -20 -237 -1 -151 16 -224 30 -224 43 0 4 -35 7 -78 7
-49 1 -115 10 -182 27 -58 15 -143 29 -190 32 -86 5 -240 42 -405 96 -230 76
-369 113 -480 127 -50 7 -62 12 -72 33 -6 14 -17 97 -23 184 -6 88 -15 180
-21 205 -6 25 -16 120 -24 211 -7 91 -24 290 -36 443 -23 275 -23 279 -4 293
10 8 14 14 8 14 -19 0 -33 59 -33 136 l0 74 43 0 c123 1 452 28 443 37 -4 4
-375 -13 -452 -22 l-41 -4 -6 266 c-4 147 -10 318 -14 380 l-6 113 194 0 c153
1 190 3 174 12 -13 8 -78 12 -192 12 l-172 0 -7 44 c-9 60 5 111 38 135 25 19
28 19 105 2 128 -28 252 -65 353 -107 52 -21 136 -55 185 -74 50 -20 95 -40
100 -46 9 -10 -68 -8 -275 7 -55 4 -60 3 -35 -6 43 -15 387 -17 392 -2 2 6
-10 14 -29 18 -73 14 -169 50 -287 107 -97 46 -158 67 -270 94 -196 47 -183
42 -171 64 13 24 144 127 273 214 67 45 107 66 128 66 39 0 112 -38 224 -115
50 -34 113 -74 140 -90 l50 -27 -45 41 c-53 48 -198 150 -256 179 -22 11 -47
28 -54 37 -12 15 -11 19 10 36 19 14 148 87 157 89 1 0 73 -36 160 -79z m5053
-1215 c215 -27 200 -23 200 -53 0 -15 -30 -82 -67 -150 l-68 -123 -300 5
c-555 11 -699 31 -726 103 -5 14 -7 49 -4 77 l7 50 127 18 c108 15 323 56 461
88 51 11 215 5 370 -15z m-6654 -81 c45 -94 65 -165 48 -165 -5 0 -54 -7 -109
-15 -55 -8 -119 -15 -143 -15 l-42 0 21 43 c38 74 160 247 175 247 3 0 26 -43
50 -95z m5809 -226 c60 -18 109 -22 340 -29 290 -9 504 -26 520 -41 15 -15
-50 -131 -164 -294 l-98 -140 -53 4 c-32 2 -108 -8 -194 -25 -113 -23 -145
-33 -159 -51 -26 -32 -177 -123 -203 -123 -19 0 -24 7 -28 43 -3 23 -12 96
-21 162 -31 240 -50 447 -46 503 1 17 26 15 106 -9z m756 -776 c-13 -24 -141
-150 -141 -139 0 8 140 156 147 156 2 0 -1 -8 -6 -17z m-5154 -1333 c437 -98
468 -105 518 -124 39 -14 39 -15 10 -15 -41 -1 -698 131 -865 174 -74 19 -139
40 -145 46 -21 24 129 -1 482 -81z m-332 -41 c187 -43 234 -58 259 -83 l21
-21 -30 -3 c-59 -6 -465 112 -473 137 -6 17 44 11 223 -30z m2070 -153 l60
-14 -135 -1 c-147 -1 -220 7 -198 20 21 13 207 10 273 -5z"/>
<path d="M5190 5859 c-269 -20 -724 -112 -1135 -230 -228 -66 -609 -197 -760
-261 -160 -69 -399 -188 -391 -195 3 -3 72 26 153 65 207 98 315 140 653 252
679 226 1150 325 1710 360 91 6 188 12 215 13 28 2 -38 4 -145 4 -107 0 -242
-3 -300 -8z"/>
<path d="M5520 4445 c-6 -8 -10 -19 -8 -26 2 -6 9 0 16 15 13 29 10 33 -8 11z"/>
<path d="M3595 4010 c9 -15 45 -32 45 -22 0 5 -12 14 -26 20 -14 7 -23 8 -19
2z"/>
<path d="M2918 3301 c34 -3 63 -10 64 -16 2 -5 -40 -40 -92 -77 -51 -37 -98
-73 -104 -79 -10 -11 6 -1 167 100 103 65 117 66 337 26 20 -3 19 -1 -7 10
-56 25 -201 45 -317 43 -93 -1 -101 -2 -48 -7z"/>
<path d="M2925 2730 c-23 -4 34 -7 135 -7 121 0 158 2 120 7 -68 10 -201 10
-255 0z"/>
<path d="M3155 2343 c-51 -12 -266 -85 -263 -89 5 -5 233 57 293 80 31 11 35
14 15 14 -14 0 -34 -2 -45 -5z"/>
<path d="M3145 2246 c-181 -61 -355 -132 -290 -119 36 7 411 137 469 163 80
36 9 18 -179 -44z"/>
<path d="M3195 1966 c-182 -90 -270 -140 -201 -116 55 20 375 182 387 196 6 8
10 14 8 14 -2 0 -89 -42 -194 -94z"/>
<path d="M6340 1890 c20 -13 33 -13 25 0 -3 6 -14 10 -23 10 -15 0 -15 -2 -2
-10z"/>
<path d="M6444 1844 c27 -14 116 -55 200 -90 83 -36 166 -74 186 -85 l35 -19
-25 21 c-33 28 -158 90 -288 143 -131 53 -173 65 -108 30z"/>
<path d="M2888 1809 c-21 -11 -38 -24 -38 -29 0 -19 30 -10 62 20 38 34 29 38
-24 9z"/>
<path d="M3492 1726 c-39 -34 -135 -107 -212 -162 -78 -54 -144 -102 -147
-108 -8 -12 -2 -8 162 100 139 92 246 178 265 215 6 10 9 19 7 19 -3 0 -36
-29 -75 -64z"/>
<path d="M6200 1569 c0 -9 11 -26 25 -39 14 -13 25 -21 25 -19 0 3 -11 20 -25
39 -14 19 -25 27 -25 19z"/>
<path d="M3503 1558 c-24 -32 -24 -41 0 -19 15 14 27 26 27 28 0 8 -19 2 -27
-9z"/>
<path d="M3453 1488 c-12 -15 -34 -78 -28 -78 7 0 47 82 42 86 -2 3 -9 -1 -14
-8z"/>
<path d="M4039 1283 l-24 -28 28 24 c25 23 32 31 24 31 -2 0 -14 -12 -28 -27z"/>
<path d="M8024 5515 c11 -8 25 -15 30 -15 6 0 2 7 -8 15 -11 8 -25 15 -30 15
-6 0 -2 -7 8 -15z"/>
<path d="M1149 3918 c-176 -141 -327 -300 -174 -184 79 60 151 126 198 180 27
31 47 56 45 56 -2 0 -33 -24 -69 -52z"/>
<path d="M864 3669 c-19 -22 -19 -22 4 -10 12 6 22 16 22 21 0 15 -5 12 -26
-11z"/>
<path d="M755 3558 l-50 -53 53 50 c48 46 57 55 49 55 -1 0 -25 -24 -52 -52z"/>
<path d="M2112 2055 c-55 -20 -132 -38 -192 -45 -84 -10 -109 -18 -157 -47
-32 -19 -84 -48 -115 -64 -32 -16 -58 -31 -58 -34 0 -11 95 31 170 75 64 37
95 50 125 50 101 0 267 42 315 80 33 26 21 24 -88 -15z"/>
<path d="M1400 1822 c-69 -21 -131 -41 -137 -45 -7 -5 -13 -19 -13 -33 0 -31
5 -30 135 28 213 93 218 110 15 50z"/>
<path d="M1856 1584 c-70 -34 -101 -44 -140 -44 -28 0 -80 -7 -115 -15 -74
-18 -231 -89 -231 -104 0 -22 50 -10 134 30 74 36 101 43 182 51 114 10 176
34 230 89 21 21 36 39 34 38 -3 0 -45 -20 -94 -45z"/>
<path d="M8318 1431 c-74 -56 -165 -137 -118 -104 49 33 220 164 220 168 0 12
-20 -1 -102 -64z"/>
<path d="M6228 408 c-25 -9 -39 -28 -20 -28 22 0 82 22 82 30 0 12 -27 12 -62
-2z"/>
</g>
</svg>
