<?xml version="1.0" standalone="no"?>
<!DOCTYPE svg PUBLIC "-//W3C//DTD SVG 20010904//EN"
 "http://www.w3.org/TR/2001/REC-SVG-20010904/DTD/svg10.dtd">
<svg version="1.0" xmlns="http://www.w3.org/2000/svg"
 width="1294.000000pt" height="1005.000000pt" viewBox="0 0 1294.000000 1005.000000"
 preserveAspectRatio="xMidYMid meet">

<g transform="translate(0.000000,1005.000000) scale(0.100000,-0.100000)"
fill="#000000" stroke="none">
<path d="M0 5025 l0 -5025 6470 0 6470 0 0 5025 0 5025 -6470 0 -6470 0 0
-5025z m3396 3623 c55 -43 2389 -2077 2549 -2221 61 -55 111 -105 113 -112 4
-17 -444 -414 -493 -437 -22 -10 -34 -3 -142 88 -291 246 -1785 1563 -1965
1732 -81 77 -114 140 -128 242 -10 81 -14 671 -4 708 8 28 33 28 70 0z m5945
-5 c7 -18 12 -149 13 -368 1 -369 -3 -408 -59 -494 -54 -84 -175 -191 -3035
-2680 -798 -695 -945 -824 -949 -833 -1 -5 5 -18 15 -30 65 -71 255 -96 375
-50 57 22 184 131 1779 1522 689 601 1278 1112 1515 1316 343 294 347 296 359
252 9 -34 7 -385 -4 -595 -10 -224 -22 -256 -129 -362 -94 -92 -1053 -932
-2451 -2146 -400 -347 -579 -506 -634 -564 -38 -39 -39 -41 -22 -60 10 -10 41
-30 69 -42 73 -33 240 -34 307 -3 60 29 298 230 1215 1029 1363 1188 1604
1395 1624 1395 21 0 26 -243 12 -570 -7 -157 -10 -181 -33 -230 -39 -86 -102
-155 -341 -372 -219 -199 -873 -801 -1362 -1254 -388 -358 -427 -398 -466
-478 l-34 -70 -6 -415 c-4 -229 -8 -622 -8 -873 -1 -336 -4 -458 -12 -458 -7
0 -37 21 -68 47 -232 198 -1157 1016 -1541 1364 -107 97 -220 197 -250 221
-332 268 -695 368 -982 270 -116 -39 -187 -82 -272 -167 -84 -83 -126 -151
-176 -283 -50 -133 -54 -133 -180 -5 -53 54 -109 119 -124 146 -104 177 -113
420 -25 648 72 187 132 246 1119 1104 322 280 986 858 1475 1285 1754 1529
3060 2667 3200 2787 27 24 55 43 63 43 7 0 17 -12 23 -27z m-5892 -1420 c131
-106 498 -422 1106 -952 633 -552 709 -620 713 -637 2 -7 -14 -30 -35 -51 -47
-47 -327 -292 -406 -356 l-59 -47 -26 19 c-106 76 -1244 1072 -1306 1143 -25
29 -62 83 -81 119 l-35 67 0 370 c0 204 3 377 6 386 3 9 11 16 16 16 6 0 54
-35 107 -77z m-45 -1335 c256 -211 1086 -934 1086 -946 0 -17 -446 -404 -493
-429 -25 -12 -31 -12 -50 0 -33 21 -201 170 -385 340 -241 223 -242 226 -242
740 0 274 5 337 26 337 4 0 29 -19 58 -42z m4119 -4363 c-2 -5 -15 -14 -30
-19 -40 -13 -43 -21 -43 -113 0 -75 -10 -106 -28 -88 -4 4 -9 47 -11 96 l-3
90 -39 16 c-21 8 -36 19 -33 24 8 13 190 7 187 -6z m115 -35 c19 -25 38 -45
43 -45 4 0 24 21 44 48 62 81 75 65 75 -90 0 -79 -3 -104 -12 -101 -12 4 -19
29 -33 121 l-6 38 -30 -40 c-16 -23 -33 -41 -38 -41 -5 0 -25 19 -45 43 l-36
42 0 -70 c0 -73 -10 -102 -29 -91 -12 8 -16 218 -4 230 14 14 38 0 71 -44z"/>
</g>
</svg>
